Coordinates
version=1
nRows=37
nColumns=38
inDegrees=no

Units are S.I. units (second, meters, Newtons, ...)
If the header above contains a line with 'inDegrees', this indicates whether rotational values are in degrees (yes) or radians (no).

endheader
time	pelvis_tilt	pelvis_list	pelvis_rotation	pelvis_tx	pelvis_ty	pelvis_tz	hip_flexion_r	hip_adduction_r	hip_rotation_r	knee_angle_r	ankle_angle_r	subtalar_angle_r	mtp_angle_r	hip_flexion_l	hip_adduction_l	hip_rotation_l	knee_angle_l	ankle_angle_l	subtalar_angle_l	mtp_angle_l	lumbar_extension	lumbar_bending	lumbar_rotation	arm_flex_r	arm_add_r	arm_rot_r	elbow_flex_r	pro_sup_r	wrist_flex_r	wrist_dev_r	arm_flex_l	arm_add_l	arm_rot_l	elbow_flex_l	pro_sup_l	wrist_flex_l	wrist_dev_l
80	-3.03114	1.19066	-1.5326	0.866056	-0.554927	1.10215	-0.364535	-0.031811	-0.140213	0.254417	-0.3807	0	0	-0.419697	-0.0273778	-0.181116	0.244328	-0.278703	0	0	-0.634386	0.115125	0.0112506	0.29467	-0.383972	0.807055	0.37501	1.5708	0	0	0.315973	-0.0276293	-0.116634	0.25827	1.5708	0	0
80.01	-3.02994	1.17864	-1.53466	0.866661	-0.555882	1.10279	-0.377442	-0.0314929	-0.138242	0.252604	-0.381976	0	0	-0.433285	-0.0270445	-0.180821	0.24199	-0.279862	0	0	-0.66503	0.112043	-0.00258677	0.310604	-0.379549	0.845936	0.352781	1.5708	0	0	0.302496	-0.0275721	-0.231906	0.278256	1.5708	0	0
80.02	-3.02691	1.16818	-1.53715	0.866882	-0.556123	1.10333	-0.391847	-0.0310939	-0.129812	0.246608	-0.382943	0	0	-0.446238	-0.026189	-0.180536	0.238494	-0.281711	0	0	-0.693032	0.108317	-0.0204991	0.32604	-0.374655	0.88472	0.334063	1.5708	0	0	0.282019	-0.0230566	-0.367105	0.314231	1.5708	0	0
80.03	-3.02446	1.15981	-1.53887	0.867226	-0.556523	1.10374	-0.402181	-0.0307751	-0.126522	0.244139	-0.383029	0	0	-0.4553	-0.0261194	-0.181129	0.238148	-0.282457	0	0	-0.716121	0.103036	-0.0315826	0.334122	-0.371677	0.908054	0.319245	1.5708	0	0	0.26795	-0.0228025	-0.450649	0.339611	1.5708	0	0
80.04	-3.02356	1.14949	-1.53932	0.867588	-0.557034	1.10406	-0.413724	-0.0302793	-0.128656	0.243194	-0.382976	0	0	-0.466263	-0.0269946	-0.184028	0.238631	-0.282076	0	0	-0.710937	0.0921675	0.00818674	0.289861	-0.385648	0.877467	0.310121	1.5708	0	0	0.326993	-0.0805342	-0.0436099	0.187099	1.5708	0	0
80.05	-3.02507	1.14419	-1.53835	0.867743	-0.557327	1.10429	-0.419259	-0.0295385	-0.128977	0.243068	-0.383349	0	0	-0.472299	-0.0274837	-0.184859	0.23788	-0.282387	0	0	-0.718453	0.0820209	0.0243352	0.272136	-0.391528	0.870428	0.302997	1.5708	0	0	0.344917	-0.101346	0.124342	0.146016	1.5708	0	0
80.06	-3.02508	1.14294	-1.53816	0.867756	-0.557317	1.10438	-0.420766	-0.0293619	-0.129461	0.24298	-0.38315	0	0	-0.474104	-0.0274638	-0.184241	0.236852	-0.283021	0	0	-0.724839	0.0767287	0.025114	0.267466	-0.393595	0.87125	0.295111	1.5708	0	0	0.340607	-0.11466	0.147838	0.143094	1.5708	0	0
80.07	-3.0245	1.14228	-1.53847	0.867758	-0.55716	1.10442	-0.421621	-0.0294733	-0.129719	0.243341	-0.382814	0	0	-0.475331	-0.0273505	-0.184067	0.235913	-0.283624	0	0	-0.728896	0.0724254	0.0251069	0.262829	-0.396229	0.869541	0.289932	1.5708	0	0	0.334615	-0.125656	0.157154	0.142161	1.5708	0	0
80.08	-3.02474	1.14147	-1.5389	0.867889	-0.557076	1.10451	-0.422268	-0.0295066	-0.128356	0.243826	-0.382704	0	0	-0.476969	-0.0272837	-0.184692	0.234433	-0.284361	0	0	-0.731875	0.0687579	0.0261386	0.258355	-0.399703	0.865987	0.287113	1.5708	0	0	0.329205	-0.134521	0.162732	0.140713	1.5708	0	0
80.09	-3.02581	1.1406	-1.53912	0.868088	-0.556941	1.10461	-0.423046	-0.0293224	-0.12636	0.243934	-0.382911	0	0	-0.478759	-0.0272199	-0.184988	0.232976	-0.285042	0	0	-0.733508	0.0660631	0.0281529	0.253302	-0.40351	0.858064	0.285949	1.5708	0	0	0.324313	-0.141652	0.167622	0.13776	1.5708	0	0
80.1	-3.02642	1.14012	-1.539	0.86814	-0.556762	1.10468	-0.42387	-0.0290087	-0.125761	0.243726	-0.382775	0	0	-0.479762	-0.0271752	-0.184227	0.232304	-0.285327	0	0	-0.734573	0.0641347	0.0300739	0.247563	-0.407485	0.842705	0.287334	1.5708	0	0	0.317687	-0.149233	0.173995	0.140564	1.5708	0	0
80.11	-3.02646	1.13959	-1.5386	0.868086	-0.556616	1.10472	-0.425102	-0.0286375	-0.126185	0.243232	-0.382351	0	0	-0.480301	-0.0273134	-0.183447	0.232658	-0.285124	0	0	-0.735893	0.0626934	0.0311924	0.242139	-0.411486	0.820596	0.291288	1.5708	0	0	0.309545	-0.15761	0.183084	0.149266	1.5708	0	0
80.12	-3.02873	1.13906	-1.53685	0.86791	-0.556467	1.10475	-0.425846	-0.02799	-0.125203	0.242996	-0.382792	0	0	-0.480835	-0.0279632	-0.184834	0.233514	-0.28436	0	0	-0.74166	0.0581433	0.0338816	0.236871	-0.414387	0.782276	0.29886	1.5708	0	0	0.286316	-0.180751	0.221842	0.20134	1.5708	0	0
80.13	-3.02906	1.13851	-1.53635	0.867871	-0.55623	1.10475	-0.42692	-0.0277758	-0.125323	0.242282	-0.383374	0	0	-0.481617	-0.0282448	-0.185179	0.233785	-0.283882	0	0	-0.742719	0.0576629	0.0339435	0.232534	-0.418207	0.756831	0.306065	1.5708	0	0	0.276574	-0.188169	0.223103	0.214595	1.5708	0	0
80.14	-3.02904	1.13743	-1.53581	0.867818	-0.556052	1.10476	-0.428925	-0.0273926	-0.125997	0.241131	-0.383823	0	0	-0.483014	-0.0285964	-0.18516	0.233742	-0.283532	0	0	-0.743921	0.0581265	0.0333948	0.228499	-0.422415	0.733512	0.31479	1.5708	0	0	0.26892	-0.193006	0.21943	0.223953	1.5708	0	0
80.15	-3.02868	1.13679	-1.53535	0.867753	-0.555834	1.10474	-0.430389	-0.0271762	-0.126897	0.240201	-0.38421	0	0	-0.483899	-0.0289251	-0.184996	0.233755	-0.283387	0	0	-0.743972	0.0592566	0.0322162	0.224507	-0.426775	0.709782	0.325226	1.5708	0	0	0.263122	-0.195656	0.213382	0.229197	1.5708	0	0
80.16	-3.02764	1.13624	-1.53547	0.867671	-0.555598	1.10475	-0.43178	-0.0274233	-0.127921	0.23893	-0.385293	0	0	-0.484972	-0.0286883	-0.183491	0.232991	-0.283483	0	0	-0.743463	0.0602154	0.0310811	0.219981	-0.430438	0.68128	0.336433	1.5708	0	0	0.257328	-0.197877	0.206555	0.235055	1.5708	0	0
80.17	-3.0264	1.13586	-1.53637	0.867651	-0.555224	1.10473	-0.433149	-0.0277799	-0.128184	0.237698	-0.385612	0	0	-0.486524	-0.0279609	-0.181737	0.231201	-0.283866	0	0	-0.741443	0.0611275	0.0304203	0.214904	-0.433962	0.65291	0.348067	1.5708	0	0	0.252438	-0.198257	0.197135	0.238191	1.5708	0	0
80.18	-3.02539	1.13514	-1.53623	0.867591	-0.554927	1.10471	-0.434967	-0.0275141	-0.129115	0.236658	-0.385402	0	0	-0.487847	-0.0280527	-0.180597	0.23056	-0.283759	0	0	-0.738607	0.0634377	0.0290404	0.210587	-0.438167	0.63322	0.358976	1.5708	0	0	0.249372	-0.196292	0.184894	0.237065	1.5708	0	0
80.19	-3.02242	1.1369	-1.53692	0.867619	-0.554468	1.10454	-0.434206	-0.0275347	-0.131082	0.236064	-0.384597	0	0	-0.485723	-0.028121	-0.178669	0.231425	-0.283147	0	0	-0.728158	0.0705921	0.0243349	0.20703	-0.441682	0.614364	0.366728	1.5708	0	0	0.262107	-0.173189	0.101235	0.191344	1.5708	0	0
80.2	-3.0209	1.13756	-1.53661	0.867517	-0.554281	1.10446	-0.434303	-0.0272684	-0.131814	0.235316	-0.384254	0	0	-0.484576	-0.0284251	-0.177403	0.232331	-0.282594	0	0	-0.723408	0.0738456	0.0217283	0.20332	-0.443532	0.58611	0.376434	1.5708	0	0	0.262325	-0.167165	0.0702745	0.185283	1.5708	0	0
80.21	-3.0195	1.13928	-1.53667	0.867387	-0.554104	1.10435	-0.433109	-0.0272698	-0.131757	0.234509	-0.383991	0	0	-0.482394	-0.0283041	-0.175849	0.232907	-0.282246	0	0	-0.71835	0.0760652	0.0198755	0.199296	-0.443112	0.545179	0.385547	1.5708	0	0	0.261108	-0.163165	0.0479927	0.184435	1.5708	0	0
80.22	-3.01863	1.14141	-1.53694	0.867306	-0.55391	1.10419	-0.431408	-0.0273389	-0.130633	0.233534	-0.383911	0	0	-0.479906	-0.0280705	-0.175299	0.233407	-0.281803	0	0	-0.713129	0.0777373	0.0190079	0.195543	-0.443781	0.515378	0.394648	1.5708	0	0	0.258739	-0.160649	0.0349514	0.187127	1.5708	0	0
80.23	-3.01807	1.14479	-1.53703	0.867167	-0.553543	1.10401	-0.427379	-0.0276033	-0.129747	0.235524	-0.382221	0	0	-0.47644	-0.0277773	-0.174834	0.233407	-0.281518	0	0	-0.70417	0.0778709	0.0172867	0.196778	-0.434214	0.481836	0.379877	1.5708	0	0	0.256349	-0.157893	0.0201031	0.186767	1.5708	0	0
80.24	-3.01765	1.14637	-1.537	0.867059	-0.553307	1.10392	-0.425342	-0.027716	-0.129176	0.23713	-0.381204	0	0	-0.475063	-0.0276107	-0.174507	0.233011	-0.281525	0	0	-0.699305	0.079737	0.0170532	0.193188	-0.435713	0.458514	0.388972	1.5708	0	0	0.254727	-0.154921	0.0109538	0.188643	1.5708	0	0
80.25	-3.01695	1.14839	-1.53718	0.866954	-0.553046	1.10383	-0.423201	-0.0278948	-0.128882	0.237728	-0.380781	0	0	-0.473069	-0.027319	-0.173776	0.232876	-0.281392	0	0	-0.693975	0.0809248	0.0168281	0.189922	-0.436199	0.436124	0.396912	1.5708	0	0	0.253955	-0.151534	0.00240826	0.189571	1.5708	0	0
80.26	-3.01678	1.15092	-1.53701	0.866841	-0.552724	1.10371	-0.420698	-0.0279168	-0.128286	0.237796	-0.380528	0	0	-0.470449	-0.0272076	-0.173403	0.233142	-0.281061	0	0	-0.688351	0.0817971	0.0169417	0.187379	-0.435628	0.414739	0.402991	1.5708	0	0	0.252997	-0.148478	-0.00382336	0.191056	1.5708	0	0
80.27	-3.01675	1.15361	-1.53676	0.866719	-0.552385	1.10359	-0.417863	-0.0279314	-0.127561	0.23832	-0.379924	0	0	-0.467871	-0.0270848	-0.172924	0.232903	-0.281161	0	0	-0.682645	0.0825501	0.0174976	0.185433	-0.434391	0.395423	0.407322	1.5708	0	0	0.253077	-0.145178	-0.0121267	0.191525	1.5708	0	0
80.28	-3.01576	1.15462	-1.5373	0.86664	-0.552217	1.10357	-0.416822	-0.0282091	-0.127139	0.238757	-0.379701	0	0	-0.46761	-0.0266269	-0.172096	0.231087	-0.282026	0	0	-0.681258	0.0848977	0.0179864	0.179739	-0.441278	0.383527	0.431965	1.5708	0	0	0.253945	-0.14165	-0.0174619	0.193369	1.5708	0	0
80.29	-3.01544	1.15697	-1.53727	0.866531	-0.551939	1.10347	-0.414189	-0.0283079	-0.126545	0.23954	-0.379154	0	0	-0.465629	-0.0263419	-0.170987	0.230133	-0.282125	0	0	-0.676892	0.0853415	0.0180941	0.178875	-0.438559	0.365368	0.435449	1.5708	0	0	0.255095	-0.138337	-0.022276	0.19299	1.5708	0	0
80.3	-3.01541	1.15897	-1.53674	0.866423	-0.551687	1.10337	-0.41191	-0.0281808	-0.126579	0.240415	-0.378262	0	0	-0.463149	-0.0263904	-0.169864	0.231234	-0.281299	0	0	-0.673218	0.0854326	0.0179444	0.17872	-0.435304	0.350778	0.438237	1.5708	0	0	0.255512	-0.136353	-0.0200697	0.194485	1.5708	0	0
80.31	-3.01451	1.16097	-1.53663	0.866314	-0.551418	1.10324	-0.4096	-0.028257	-0.127565	0.241812	-0.374461	0	0	-0.460333	-0.0263816	-0.168778	0.233	-0.280664	0	0	-0.669118	0.0855212	0.0168486	0.178891	-0.432121	0.341254	0.440829	1.5708	0	0	0.255755	-0.134073	-0.0223603	0.195393	1.5708	0	0
80.32	-3.07238	1.13752	-1.58655	0.871884	-0.563105	1.10437	-0.371138	-0.048938	0.0322942	0.328957	-0.333272	0	0	-0.490694	0.00495023	-0.269173	0.219193	-0.294912	0	0	-0.714423	0.0630067	0.10079	0.212254	-0.479256	0.381876	0.475839	1.5708	0	0	0.282174	-0.0992849	-0.0463994	0.184198	1.5708	0	0
80.33	-3.07193	1.13857	-1.58553	0.871771	-0.563044	1.10437	-0.370096	-0.0485262	0.031352	0.328967	-0.333473	0	0	-0.488943	0.00407344	-0.269665	0.220425	-0.294932	0	0	-0.712473	0.0638976	0.0987067	0.214979	-0.476165	0.381128	0.47784	1.5708	0	0	0.283287	-0.0968839	-0.0499767	0.184563	1.5708	0	0
80.34	-3.01327	1.16516	-1.5352	0.866013	-0.551197	1.1031	-0.40442	-0.0280132	-0.129733	0.244043	-0.373055	0	0	-0.454118	-0.0274821	-0.169747	0.236271	-0.280465	0	0	-0.662891	0.0871419	0.014225	0.181719	-0.422107	0.317307	0.450943	1.5708	0	0	0.261927	-0.122481	-0.0461155	0.192873	1.5708	0	0
80.35	-3.01508	1.16591	-1.53451	0.865952	-0.551212	1.10309	-0.402963	-0.0278447	-0.129783	0.244509	-0.375529	0	0	-0.453456	-0.0275219	-0.170659	0.236054	-0.280205	0	0	-0.662715	0.0874788	0.0152318	0.183587	-0.41964	0.314991	0.454533	1.5708	0	0	0.264272	-0.11893	-0.0465606	0.192817	1.5708	0	0
80.36	-3.01737	1.16768	-1.53412	0.865787	-0.550867	1.103	-0.400615	-0.0280702	-0.128887	0.245232	-0.37698	0	0	-0.452441	-0.0272553	-0.173472	0.235257	-0.280129	0	0	-0.660124	0.086408	0.0172357	0.185858	-0.414207	0.31341	0.447386	1.5708	0	0	0.265717	-0.115296	-0.0486	0.192047	1.5708	0	0
